<?xml version="1.0" encoding="utf-8" ?>
<svg xmlns="http://www.w3.org/2000/svg" xmlns:xlink="http://www.w3.org/1999/xlink" width="40" height="40">
	<path transform="scale(0.078125 0.078125)" d="M229.561 318.671L104.392 318.684C76.9965 318.703 72.2418 314.009 72.2845 286.169L72.2744 144.539C72.2721 128.758 77.4512 119.997 94.1116 119.02L352.73 119.008C364.901 118.984 378.374 119.886 381.102 135.437C381.831 139.593 381.534 144.086 381.532 148.303L381.521 239.958C460.126 261.189 460.305 368.006 382.321 390.297C335.235 401.141 291.011 369.749 286.337 321.717L263.832 344.834C249.315 359.749 249.785 363.227 239.807 341.015C236.447 333.538 233.063 326.084 229.561 318.671ZM167.686 129.153L100.904 129.149C78.3755 129.161 82.4257 136.078 82.4597 156.306L82.4803 263.887C82.4811 275.019 82.1813 286.223 82.4434 297.345C82.7422 310.021 93.5359 308.592 102.957 308.594L223.871 308.571C227.238 308.57 230.968 308.221 234.293 308.576C238.918 312.005 248.542 335.108 251.925 342.74C257.684 336.786 263.392 330.743 269.235 324.875L279.37 314.57C287.932 305.888 285.367 309.457 288.007 297.899C294.851 267.946 319.489 244.827 349.685 239.301C356.884 237.983 363.994 238.126 371.272 238.183L371.28 148.671C371.282 141.28 372.598 130.606 362.398 129.352C356.613 128.641 348.263 129.151 342.187 129.152L167.686 129.153ZM358.429 248.727C318.463 253.594 291.897 284.104 297.081 324.884C301.512 359.736 334.367 385.419 369.189 382.246C389.519 378.928 405.441 371.433 417.93 353.985C439.439 323.937 432.439 281.53 402.162 260.203C388.45 250.545 374.857 248.352 358.429 248.727Z"/>
	<path transform="scale(0.078125 0.078125)" d="M182.808 218.956C145.088 223.194 138.185 157.612 177.048 152.085C213.343 148.067 223.322 211.431 182.808 218.956ZM178.989 162.105C153.994 164.436 155.246 209.239 181.04 208.799C205.792 206.268 204.036 161.478 178.989 162.105Z"/>
	<path transform="scale(0.078125 0.078125)" d="M270.484 197.923C255.782 186.962 262.874 161.516 284.639 159.85C303.366 158.363 314.792 182.026 299.932 197.923C314.862 212.944 305.904 233.312 286.337 236.243L285.537 236.246C264.163 236.169 255.785 212.131 270.484 197.923ZM284.639 169.833C268.7 172.295 269.707 193.071 285.414 192.847C301.444 191.53 299.782 170.111 284.639 169.833ZM284.639 202.6C268.25 204.427 269.909 226.553 286.337 226.248C301.096 223.053 300.351 203.187 284.639 202.6Z"/>
	<path transform="scale(0.078125 0.078125)" d="M245.521 176.033C241.789 178.389 233.338 186.759 228.53 184.925C215.098 179.8 247.324 161.989 250.302 161.043C258.875 160.255 255.516 183.603 255.516 189.671L255.51 232.969C253.914 234.49 252.359 235.461 250.302 236.243C248.356 235.454 246.993 234.45 245.521 232.969C245.095 226.453 245.512 218.973 245.521 212.35C245.523 200.261 245.248 188.114 245.521 176.033Z"/>
	<path transform="scale(0.078125 0.078125)" d="M204.488 283.677L155.829 283.675C147.672 283.677 138.291 284.231 130.297 283.454C123.013 282.746 125.225 271.672 125.235 266.645C125.278 244.574 129.728 225.87 155.472 222.82C165.113 221.91 201.417 222.293 208.527 224.022C222.875 227.509 233.143 240.299 234.178 254.98C234.503 259.577 234.874 274.13 234.109 278.539C232.901 285.504 226.033 283.751 220.752 283.705L204.488 283.677ZM157.91 232.969C140.232 234.479 135.263 246.498 135.238 262.556L135.251 273.621L201.713 273.621L224.22 273.621L224.236 262.517C224.235 243.995 216.975 232.931 197.23 232.929L157.91 232.969Z"/>
	<path transform="scale(0.078125 0.078125)" d="M354.892 332.526C357.938 329.265 361.205 326.188 364.357 323.03L380.084 307.197C386.438 300.858 392.56 294.223 399.223 288.205C401.515 290.555 403.736 292.974 405.969 295.38C404.315 297.517 402.275 299.426 400.386 301.354L354.892 347.187C346.441 338.709 338.217 329.845 329.438 321.717C327.136 319.133 324.637 316.721 322.315 314.149L329.438 306.986C337.468 315.858 346.52 323.964 354.892 332.526Z"/>
</svg>
